#!OML:ASF F:\VICON\USERDATA\INSTALL\Justin_Nancy\Justin_Nancy.ASF
:FULLY-SPECIFIED
:DEGREES
142
root 13.1622 17.5391 -7.04567 2.19604 -1.19983 -3.9908
lowerback 7.05913 1.11753 4.17757
upperback 0.010701 1.95865 3.17349
thorax -3.92441 0.920246 0.741581
lowerneck -17.1288 -3.44977 -9.12288
upperneck 22.7974 -3.81134 6.07734
head 10.431 -1.82778 3.16528
rclavicle 5.26779e-015 -9.54166e-015
rhumerus -24.7505 -5.16156 -82.0133
rradius 37.1387
rwrist 2.18831
rhand -13.9301 13.1436
rfingers 7.12502
rthumb 12.1965 -16.4808
lclavicle 5.26779e-015 -9.54166e-015
lhumerus -32.6267 15.0486 82.7218
lradius 23.3356
lwrist -12.1107
lhand -13.0267 27.9142
lfingers 7.12502
lthumb 13.0674 57.4849
rfemur 2.43556 1.93334 31.8266
rtibia 14.2834
rfoot -13.0627 -2.29955
rtoes 6.31836
lfemur -30.6531 -4.24805 -11.3147
ltibia 30.1226
lfoot -9.00425 7.13295
ltoes -7.15605
143
root 13.1787 17.5093 -6.91119 2.26379 -1.48758 -4.2626
lowerback 6.91694 1.19246 4.43957
upperback 0.0543936 2.06949 3.23172
thorax -3.79051 0.973139 0.6483
lowerneck -16.8026 -3.90832 -9.5123
upperneck 23.2111 -4.38734 6.04555
head 10.5818 -2.13889 3.14444
rclavicle -2.37051e-014 -2.78299e-014
rhumerus -24.7827 -5.09418 -82.038
rradius 37.6318
rwrist 2.276
rhand -14.1399 13.0782
rfingers 7.12502
rthumb 11.9943 -16.5581
lclavicle -2.37051e-014 -2.78299e-014
lhumerus -32.7758 15.5503 82.5363
lradius 23.2217
lwrist -12.1773
lhand -13.6403 26.435
lfingers 7.12502
lthumb 12.4759 56.0426
rfemur 3.00502 1.87275 32.1038
rtibia 13.9789
rfoot -13.1893 -2.41889
rtoes 4.25734
lfemur -30.699 -5.46286 -10.4293
ltibia 28.2334
lfoot -9.15588 7.77382
ltoes -4.04926
144
root 13.1983 17.4878 -6.76789 2.30247 -1.90588 -4.2507
lowerback 6.67525 1.28815 4.45955
upperback 0.0914245 2.17818 3.20609
thorax -3.61216 1.02975 0.606239
lowerneck -16.3363 -4.02892 -9.63932
upperneck 23.0567 -4.55295 6.00685
head 10.4541 -2.23679 3.12876
rclavicle 1.44119e-015 -1.43125e-014
rhumerus -24.8375 -4.8962 -82.0965
rradius 37.9964
rwrist 2.01833
rhand -14.425 12.9752
rfingers 7.12502
rthumb 11.7193 -16.677
lclavicle 1.44119e-015 -1.43125e-014
lhumerus -32.8976 16.1545 82.3065
lradius 23.0153
lwrist -12.4943
lhand -13.7708 26.1885
lfingers 7.12502
lthumb 12.3501 55.8038
rfemur 3.53094 1.84644 32.0144
rtibia 13.8312
rfoot -13.3754 -2.33061
rtoes 3.82158
lfemur -30.6326 -6.36847 -10.0155
ltibia 26.5706
lfoot -9.56151 8.87247
ltoes -3.67948
145
root 13.2144 17.4833 -6.62562 2.42078 -2.37377 -4.08995
lowerback 6.30737 1.41853 4.29283
upperback 0.13515 2.3099 3.16392
thorax -3.36181 1.10225 0.653452
lowerneck -16.3873 -3.80852 -9.54183
upperneck 22.8357 -4.26935 6.06149
head 10.3557 -2.08888 3.16912
rclavicle -3.40419e-014 -2.62396e-014
rhumerus -24.7019 -4.76496 -82.0703
rradius 37.9969
rwrist 1.97224
rhand -14.4386 13.2175
rfingers 7.12502
rthumb 11.7062 -16.4354
lclavicle -3.40419e-014 -2.62396e-014
lhumerus -33.0123 16.3744 82.2524
lradius 22.9442
lwrist -12.6557
lhand -13.471 26.9721
lfingers 7.12502
lthumb 12.6392 56.5697
rfemur 3.80937 2.01803 31.7631
rtibia 14.0512
rfoot -13.6426 -2.35674
rtoes 3.39707
lfemur -30.6532 -6.12225 -10.2936
ltibia 25.1294
lfoot -9.49964 9.4954
ltoes -7.6479
146
root 13.2258 17.4754 -6.49346 2.50557 -2.43157 -3.89261
lowerback 6.20137 1.43918 4.0319
upperback 0.0702522 2.31476 3.14727
thorax -3.37882 1.10825 0.783197
lowerneck -16.8066 -3.39387 -9.34208
upperneck 22.5433 -3.7343 6.24095
head 10.2786 -1.79529 3.26937
rclavicle 9.93923e-017 -9.54166e-015
rhumerus -24.6414 -4.55036 -81.998
rradius 37.8719
rwrist 2.02162
rhand -14.5168 13.4782
rfingers 7.12502
rthumb 11.6307 -16.179
lclavicle 9.93923e-017 -9.54166e-015
lhumerus -33.3554 16.5026 82.2158
lradius 22.9973
lwrist -12.7432
lhand -13.8409 25.4526
lfingers 7.12502
lthumb 12.2825 55.0719
rfemur 4.11143 1.98235 31.5198
rtibia 14.2659
rfoot -13.8008 -2.52691
rtoes 3.56966
lfemur -30.7353 -6.78851 -10.2849
ltibia 24.0453
lfoot -10.0562 9.98104
ltoes -6.88782
147
root 13.2411 17.4517 -6.36763 2.5722 -2.44912 -3.89901
lowerback 6.27688 1.4528 4.00961
upperback -0.0352273 2.3415 3.13899
thorax -3.5309 1.11882 0.781316
lowerneck -16.4331 -3.74477 -9.61176
upperneck 23.1313 -4.20564 6.21003
head 10.4706 -2.05073 3.24889
rclavicle -1.8487e-014 1.66979e-014
rhumerus -24.5804 -4.54259 -81.9694
rradius 37.7764
rwrist 1.99269
rhand -14.4639 13.3759
rfingers 7.12502
rthumb 11.6817 -16.2784
lclavicle -1.8487e-014 1.66979e-014
lhumerus -33.7239 16.3581 82.2291
lradius 23.1684
lwrist -12.5745
lhand -15.6153 20.9073
lfingers 7.12502
lthumb 10.5713 50.6214
rfemur 4.47871 1.84438 31.4828
rtibia 14.3512
rfoot -14.0118 -2.582
rtoes 3.21494
lfemur -30.8634 -8.47381 -9.57803
ltibia 23.3362
lfoot -11.7416 10.9685
ltoes -3.31721
148
root 13.2613 17.4316 -6.23623 2.69381 -2.68448 -3.91442
lowerback 6.11611 1.51068 4.07698
upperback -0.0754941 2.41316 3.08787
thorax -3.47628 1.15332 0.688562
lowerneck -17.0156 -3.32527 -8.93056
upperneck 22.9905 -3.69382 6.01667
head 10.4632 -1.76803 3.13195
rclavicle -2.87741e-014 5.56597e-015
rhumerus -24.6545 -4.48473 -82.0225
rradius 38.0247
rwrist 1.84705
rhand -14.4082 13.2243
rfingers 7.12502
rthumb 11.7355 -16.427
lclavicle -2.87741e-014 5.56597e-015
lhumerus -34.0127 16.1719 82.2516
lradius 23.4046
lwrist -12.3219
lhand -13.2037 27.7363
lfingers 7.12502
lthumb 12.8969 57.3178
rfemur 4.79291 1.99031 31.3822
rtibia 14.5282
rfoot -14.3875 -2.4096
rtoes 3.81856
lfemur -30.8389 -9.0632 -9.35344
ltibia 22.7987
lfoot -12.9886 11.6382
ltoes -4.7816
149
root 13.2853 17.4172 -6.09343 2.66315 -3.14782 -3.92578
lowerback 5.94768 1.63799 4.1953
upperback 0.0140604 2.5724 3.01888
thorax -3.27771 1.23357 0.544154
lowerneck -16.6203 -3.71342 -9.40235
upperneck 23.1503 -4.22511 6.29256
head 10.5109 -2.02877 3.24003
rclavicle -2.18663e-014 -1.59028e-015
rhumerus -24.6426 -4.58947 -82.0581
rradius 38.2128
rwrist 1.68991
rhand -14.4605 13.162
rfingers 7.12502
rthumb 11.685 -16.4921
lclavicle -2.18663e-014 -1.59028e-015
lhumerus -34.1391 16.1256 82.1976
lradius 23.4061
lwrist -12.039
lhand -12.4594 29.2285
lfingers 7.12502
lthumb 13.6143 58.7633
rfemur 5.34911 2.35057 31.2493
rtibia 14.6633
rfoot -14.711 -2.23714
rtoes 4.74076
lfemur -30.5006 -10.3118 -8.94172
ltibia 22.4977
lfoot -13.8153 13.0218
ltoes -5.37195
150
root 13.2942 17.4072 -5.98827 2.73764 -2.62175 -3.94448
lowerback 6.19287 1.43705 4.16374
upperback -0.0976725 2.32667 3.06686
thorax -3.53962 1.1074 0.623708
lowerneck -16.7098 -3.86905 -9.64158
upperneck 23.3072 -4.38724 6.33762
head 10.6085 -2.11903 3.27527
rclavicle 1.97791e-014 2.38542e-015
rhumerus -24.4954 -4.69136 -82.004
rradius 38.168
rwrist 1.70026
rhand -14.275 13.0186
rfingers 7.12502
rthumb 11.8639 -16.6253
lclavicle 1.97791e-014 2.38542e-015
lhumerus -34.288 16.3531 82.1075
lradius 23.2991
lwrist -11.983
lhand -13.2684 26.9008
lfingers 7.12502
lthumb 12.8344 56.4862
rfemur 5.57081 2.23156 31.3705
rtibia 14.7185
rfoot -14.4677 -2.7642
rtoes 4.05432
lfemur -30.7098 -10.4392 -8.99313
ltibia 22.4344
lfoot -13.3712 12.1229
ltoes -4.28878
151
root 13.3069 17.4007 -5.87131 2.71008 -2.35952 -4.0715
lowerback 6.37379 1.29181 4.23091
upperback -0.144951 2.15684 3.17276
thorax -3.69553 1.01995 0.70605
lowerneck -16.8933 -3.84458 -9.77186
upperneck 23.4767 -4.32187 6.40477
head 10.705 -2.09158 3.33333
rclavicle -1.92821e-014 -1.27222e-014
rhumerus -24.5369 -4.53908 -81.9285
rradius 38.2184
rwrist 1.62883
rhand -13.9401 13.0321
rfingers 7.12502
rthumb 12.1868 -16.5929
lclavicle -1.92821e-014 -1.27222e-014
lhumerus -34.4175 16.4608 82.1676
lradius 23.3635
lwrist -11.8337
lhand -13.7712 26.1198
lfingers 7.12502
lthumb 12.3497 55.735
rfemur 5.9511 2.2337 31.5668
rtibia 14.8248
rfoot -14.084 -3.07291
rtoes 3.75325
lfemur -30.6032 -8.43696 -9.71248
ltibia 22.579
lfoot -11.7384 9.63029
ltoes -3.27729
